<svg width="28" height="29" viewBox="0 0 28 29" fill="none" xmlns="http://www.w3.org/2000/svg">
<path d="M14.551 22.8375L20.851 26.8375C21.6635 27.35 22.6635 26.5875 22.426 25.65L20.601 18.475C20.5516 18.2761 20.5595 18.0674 20.6236 17.8728C20.6877 17.6781 20.8056 17.5056 20.9635 17.375L26.6135 12.6625C27.351 12.05 26.976 10.8125 26.0135 10.75L18.6385 10.275C18.4372 10.2633 18.2438 10.1933 18.0817 10.0734C17.9197 9.9535 17.7961 9.78902 17.726 9.60003L14.976 2.67503C14.9032 2.47491 14.7706 2.30204 14.5961 2.17988C14.4217 2.05772 14.2139 1.99219 14.001 1.99219C13.788 1.99219 13.5802 2.05772 13.4058 2.17988C13.2314 2.30204 13.0988 2.47491 13.026 2.67503L10.276 9.60003C10.2059 9.78902 10.0823 9.9535 9.92021 10.0734C9.75816 10.1933 9.5647 10.2633 9.36347 10.275L1.98847 10.75C1.02597 10.8125 0.650971 12.05 1.38847 12.6625L7.03847 17.375C7.19639 17.5056 7.3142 17.6781 7.37834 17.8728C7.44247 18.0674 7.45032 18.2761 7.40097 18.475L5.71347 25.125C5.42597 26.25 6.62597 27.1625 7.58847 26.55L13.451 22.8375C13.6154 22.733 13.8062 22.6775 14.001 22.6775C14.1958 22.6775 14.3866 22.733 14.551 22.8375Z" fill="#C9AA71" stroke="black" stroke-width="2" stroke-linecap="round" stroke-linejoin="round"/>
</svg>
