<svg width="32" height="32" viewBox="0 0 32 32" fill="none" xmlns="http://www.w3.org/2000/svg">
<path d="M16.551 23.8375L22.851 27.8375C23.6635 28.35 24.6635 27.5875 24.426 26.65L22.601 19.475C22.5516 19.2761 22.5595 19.0673 22.6236 18.8727C22.6877 18.6781 22.8056 18.5055 22.9635 18.375L28.6135 13.6625C29.351 13.05 28.976 11.8125 28.0135 11.75L20.6385 11.275C20.4372 11.2633 20.2438 11.1932 20.0817 11.0733C19.9197 10.9534 19.7961 10.789 19.726 10.6L16.976 3.67497C16.9032 3.47485 16.7706 3.30197 16.5961 3.17981C16.4217 3.05765 16.2139 2.99213 16.001 2.99213C15.788 2.99213 15.5802 3.05765 15.4058 3.17981C15.2314 3.30197 15.0988 3.47485 15.026 3.67497L12.276 10.6C12.2059 10.789 12.0823 10.9534 11.9202 11.0733C11.7582 11.1932 11.5647 11.2633 11.3635 11.275L3.98847 11.75C3.02597 11.8125 2.65097 13.05 3.38847 13.6625L9.03847 18.375C9.19639 18.5055 9.3142 18.6781 9.37834 18.8727C9.44247 19.0673 9.45032 19.2761 9.40097 19.475L7.71347 26.125C7.42597 27.25 8.62597 28.1625 9.58847 27.55L15.451 23.8375C15.6154 23.7329 15.8062 23.6774 16.001 23.6774C16.1958 23.6774 16.3866 23.7329 16.551 23.8375Z" stroke="black" stroke-width="2" stroke-linecap="round" stroke-linejoin="round"/>
</svg>
